<svg id="Слой_1" data-name="Слой 1" xmlns="http://www.w3.org/2000/svg" viewBox="0 0 154.42 212.39"><defs><style>.cls-1{fill:#d90912;}</style></defs><path class="cls-1" d="M65.14,105.19H39.64a1.55,1.55,0,0,1-.85-2.85l77-50.48a1.55,1.55,0,0,1,2.31,1.82L69.7,187.58a1.55,1.55,0,0,1-3-.53V106.74A1.55,1.55,0,0,0,65.14,105.19Z"/><path class="cls-1" d="M44.71,41V26.71H38V41H34.61V23.78H48.17V41Z"/><path class="cls-1" d="M57.86,33.38a3.27,3.27,0,0,0-.25-1.22,2.26,2.26,0,0,0-.56-.88,2.09,2.09,0,0,0-.8-.52,2.57,2.57,0,0,0-.94-.18,2.31,2.31,0,0,0-1.71.75,3.12,3.12,0,0,0-.81,2.05Zm-5.17,2.13a3.79,3.79,0,0,0,.8,2.31,2.53,2.53,0,0,0,2,.86,2.75,2.75,0,0,0,1.42-.36,1.76,1.76,0,0,0,.81-1.07h3.38a5.39,5.39,0,0,1-5.45,4.1q-6.23,0-6.22-7a8.33,8.33,0,0,1,.41-2.68,5.89,5.89,0,0,1,1.16-2,5.12,5.12,0,0,1,1.89-1.3,6.55,6.55,0,0,1,2.55-.46,5.17,5.17,0,0,1,4.35,1.89,9.19,9.19,0,0,1,1.49,5.71Z"/><path class="cls-1" d="M68.49,38.47q2.83,0,2.83-3.94a4.58,4.58,0,0,0-.78-2.78,2.4,2.4,0,0,0-2-1.09,2.49,2.49,0,0,0-2,1,4.24,4.24,0,0,0-.78,2.65Q65.74,38.48,68.49,38.47Zm-5.86,8.59V28.24h3.16l0,1.56a3.78,3.78,0,0,1,3.46-1.89,4.86,4.86,0,0,1,3.87,1.81,6.67,6.67,0,0,1,1.11,2.16,9.5,9.5,0,0,1,.4,2.88,9.75,9.75,0,0,1-.35,2.67,6.17,6.17,0,0,1-1,2.08,4.55,4.55,0,0,1-1.61,1.38,4.76,4.76,0,0,1-2.15.46,4.26,4.26,0,0,1-3.68-2v7.71Z"/><path class="cls-1" d="M75.93,41V28.24h8.59a5.83,5.83,0,0,1,1.86.26,3.54,3.54,0,0,1,1.24.65,2.29,2.29,0,0,1,.68,1,3.43,3.43,0,0,1,.21,1.19,2.81,2.81,0,0,1-.59,1.85,2.84,2.84,0,0,1-1.43.93,3.14,3.14,0,0,1,.88.36,2.69,2.69,0,0,1,.76.63,2.81,2.81,0,0,1,.55,1,3.59,3.59,0,0,1,.2,1.3,3.92,3.92,0,0,1-.27,1.47A3.07,3.07,0,0,1,87.75,40a4.52,4.52,0,0,1-1.54.76A8.59,8.59,0,0,1,84,41Zm7.55-2.39c1.43,0,2.15-.58,2.15-1.74s-.65-1.72-1.95-1.72H79.06v3.46Zm.08-5.4a2,2,0,0,0,1.26-.34,1.09,1.09,0,0,0,.45-.91c0-1-.59-1.45-1.79-1.45H79.06v2.7Z"/><path class="cls-1" d="M93.47,28.24v4.08h4.14A4.65,4.65,0,0,1,101,33.44a4.05,4.05,0,0,1,1.21,3.19A4.26,4.26,0,0,1,101,39.9,4.7,4.7,0,0,1,97.61,41H90.27V28.24Zm0,6.49V38.5h3.94A2,2,0,0,0,98.83,38a1.9,1.9,0,0,0,.5-1.4,1.84,1.84,0,0,0-.5-1.4,2,2,0,0,0-1.42-.5ZM103.22,41V28.24h3.28V41Z"/><path class="cls-1" d="M116.43,33.38a3.27,3.27,0,0,0-.26-1.22,2.24,2.24,0,0,0-.55-.88,2.2,2.2,0,0,0-.81-.52,2.48,2.48,0,0,0-.93-.18,2.33,2.33,0,0,0-1.72.75,3.22,3.22,0,0,0-.81,2.05Zm-5.18,2.13a3.73,3.73,0,0,0,.81,2.31,2.5,2.5,0,0,0,2,.86,2.69,2.69,0,0,0,1.41-.36,1.76,1.76,0,0,0,.81-1.07h3.38a5.39,5.39,0,0,1-5.45,4.1q-6.21,0-6.21-7a8.34,8.34,0,0,1,.4-2.68,6,6,0,0,1,1.16-2,5.24,5.24,0,0,1,1.9-1.3,6.55,6.55,0,0,1,2.55-.46,5.15,5.15,0,0,1,4.34,1.89,9.19,9.19,0,0,1,1.49,5.71Z"/></svg>